<svg xmlns="http://www.w3.org/2000/svg" xmlns:xlink="http://www.w3.org/1999/xlink" width="239.565" height="280.001" viewBox="0 0 239.565 280.001"><defs><linearGradient id="a" x1="0.5" x2="0.5" y2="1" gradientUnits="objectBoundingBox"><stop offset="0" stop-color="#f24bcf"/><stop offset="1" stop-color="#5c32d4"/></linearGradient></defs><path d="M-10347.134,108V73.471h207.18V108Zm158.8-22.27a4.672,4.672,0,0,0-1.947,1.921,6.2,6.2,0,0,0-.691,3.024,6.361,6.361,0,0,0,.691,3.052,4.78,4.78,0,0,0,1.958,1.981,5.956,5.956,0,0,0,2.909.689,5.967,5.967,0,0,0,2.909-.689,4.767,4.767,0,0,0,1.955-1.981,6.35,6.35,0,0,0,.694-3.052,6.186,6.186,0,0,0-.694-3.013,4.635,4.635,0,0,0-1.947-1.932,6.187,6.187,0,0,0-2.917-.658A6.194,6.194,0,0,0-10188.332,85.732Zm-102.271,0a4.689,4.689,0,0,0-1.947,1.921,6.217,6.217,0,0,0-.691,3.024,6.384,6.384,0,0,0,.691,3.052,4.8,4.8,0,0,0,1.955,1.981,5.987,5.987,0,0,0,2.912.689,5.972,5.972,0,0,0,2.909-.689,4.789,4.789,0,0,0,1.957-1.981,6.372,6.372,0,0,0,.692-3.052,6.207,6.207,0,0,0-.692-3.013,4.651,4.651,0,0,0-1.949-1.932,6.182,6.182,0,0,0-2.917-.658A6.2,6.2,0,0,0-10290.6,85.732Zm-25.371.07v5.257a5.718,5.718,0,0,0,1.229,4.035,4.841,4.841,0,0,0,3.694,1.305,4.747,4.747,0,0,0,3.65-1.3,5.8,5.8,0,0,0,1.206-4.043V85.8a.538.538,0,0,0-.538-.538h-1.729a.535.535,0,0,0-.535.538v5.535a3.514,3.514,0,0,1-.515,2.15,1.839,1.839,0,0,1-1.539.653,1.81,1.81,0,0,1-1.526-.645,3.613,3.613,0,0,1-.5-2.158V85.8a.536.536,0,0,0-.539-.538h-1.824A.537.537,0,0,0-10315.975,85.8Zm159.66,0v9.856a.537.537,0,0,0,.538.536h3.114a6.506,6.506,0,0,0,4.376-1.378,5.162,5.162,0,0,0,1.606-4.139,4.958,4.958,0,0,0-1.63-4.084,6.953,6.953,0,0,0-4.517-1.329h-2.95A.537.537,0,0,0-10156.314,85.8Zm-9.75,0v9.856a.537.537,0,0,0,.538.536h6.57a.535.535,0,0,0,.538-.536V94.529a.535.535,0,0,0-.538-.536h-3.653a.537.537,0,0,1-.535-.538V85.8a.538.538,0,0,0-.538-.538h-1.844A.538.538,0,0,0-10166.064,85.8Zm-7.528,6.546a.54.54,0,0,1,.465.268l1.921,3.31a.537.537,0,0,0,.466.268h1.981a.536.536,0,0,0,.454-.822l-1.879-3.008a.541.541,0,0,1,.194-.754,3.317,3.317,0,0,0,1.024-.949,3.293,3.293,0,0,0,.557-1.95,2.868,2.868,0,0,0-1.3-2.649,6.51,6.51,0,0,0-3.448-.8h-3.912a.537.537,0,0,0-.538.538v9.856a.537.537,0,0,0,.538.536h1.843a.535.535,0,0,0,.536-.536V92.886a.539.539,0,0,1,.538-.538ZM-10199.4,88.9c.12.853.278,1.7.474,2.54l1,4.337a.538.538,0,0,0,.525.416h2.795a.538.538,0,0,0,.528-.437l1.895-9.856a.535.535,0,0,0-.527-.637h-1.646a.536.536,0,0,0-.53.452l-.729,4.537-.455,3.46h-.08l-.294-1.495q-.261-1.322-.408-1.965l-1.154-4.583a.533.533,0,0,0-.52-.406h-1.623a.54.54,0,0,0-.522.406l-1.136,4.583q-.441,1.993-.718,3.46h-.065l-.488-3.46-.7-4.534a.538.538,0,0,0-.533-.455h-1.849a.536.536,0,0,0-.525.642l1.983,9.856a.536.536,0,0,0,.528.432h2.732a.534.534,0,0,0,.522-.421l.967-4.331c.055-.226.106-.494.161-.809s.1-.551.133-.718l.2-1.014Zm-16.529-3.1v9.856a.535.535,0,0,0,.535.536h6.8a.535.535,0,0,0,.535-.536V94.529a.535.535,0,0,0-.535-.536h-3.882a.539.539,0,0,1-.538-.538V92.21a.537.537,0,0,1,.538-.536h2.984a.539.539,0,0,0,.538-.538V90.011a.539.539,0,0,0-.538-.538h-2.984a.537.537,0,0,1-.538-.536v-.949a.538.538,0,0,1,.538-.538h3.7a.539.539,0,0,0,.538-.538V85.8a.537.537,0,0,0-.538-.538h-6.622A.535.535,0,0,0-10215.929,85.8Zm-6.242,5.9a.537.537,0,0,1,.535.538v3.416a.537.537,0,0,0,.538.536h1.828a.537.537,0,0,0,.538-.536V85.8a.537.537,0,0,0-.538-.538h-1.828a.538.538,0,0,0-.538.538v3.091a.535.535,0,0,1-.535.536h-2.92a.537.537,0,0,1-.538-.536V85.8a.536.536,0,0,0-.538-.538h-1.841a.536.536,0,0,0-.538.538v9.856a.535.535,0,0,0,.538.536h1.841a.535.535,0,0,0,.538-.536V92.242a.539.539,0,0,1,.538-.538Zm-17.738-5.9v1.11a.539.539,0,0,0,.538.538h2.2a.538.538,0,0,1,.538.538v7.669a.536.536,0,0,0,.535.536h1.846a.535.535,0,0,0,.536-.536V87.988a.537.537,0,0,1,.538-.538h2.218a.539.539,0,0,0,.538-.538V85.8a.538.538,0,0,0-.538-.538h-8.413A.537.537,0,0,0-10239.909,85.8Zm-10.883.247,3.188,6.169a.561.561,0,0,1,.06.247v3.193a.535.535,0,0,0,.538.536h1.825a.537.537,0,0,0,.538-.536V92.465a.548.548,0,0,1,.06-.247l3.2-6.169a.536.536,0,0,0-.476-.785h-1.807a.536.536,0,0,0-.5.33l-.873,2.106-.294.7q-.176.429-.715,1.734h-.065l-.978-2.436-.876-2.106a.535.535,0,0,0-.494-.33h-1.856A.538.538,0,0,0-10250.792,86.049Zm-9.461-.247v9.856a.535.535,0,0,0,.538.536h1.843a.535.535,0,0,0,.536-.536V92.564a.539.539,0,0,1,.538-.538h3.065a.535.535,0,0,0,.538-.536V90.378a.538.538,0,0,0-.538-.538h-3.065a.537.537,0,0,1-.538-.536V87.988a.537.537,0,0,1,.538-.538h3.751a.537.537,0,0,0,.536-.538V85.8a.536.536,0,0,0-.536-.538h-6.668A.536.536,0,0,0-10260.253,85.8Zm-5.7,0v9.856a.535.535,0,0,0,.538.536h1.841a.537.537,0,0,0,.538-.536V85.8a.538.538,0,0,0-.538-.538h-1.841A.536.536,0,0,0-10265.957,85.8Zm-5.054,2.865a27.659,27.659,0,0,0-.391,3.785v3.206a.535.535,0,0,0,.536.536h1.583a.535.535,0,0,0,.535-.536V85.8a.535.535,0,0,0-.535-.538h-2.26a.538.538,0,0,0-.5.341l-1.724,4.383c-.086.234-.19.541-.31.926-.153.468-.271.822-.359,1.056h-.08l-.244-.764c-.065-.174-.133-.367-.2-.572s-.14-.419-.226-.645l-1.789-4.391a.535.535,0,0,0-.5-.333h-2.249a.536.536,0,0,0-.536.538v9.856a.535.535,0,0,0,.536.536h1.534a.537.537,0,0,0,.538-.536V92.452a16.087,16.087,0,0,0-.1-1.614c-.067-.606-.158-1.329-.278-2.171h.065l.978,2.61,1.508,3.661a.542.542,0,0,0,.5.33h.876a.533.533,0,0,0,.5-.333l1.494-3.658,1.012-2.61Zm-28.83,3.681a.543.543,0,0,1,.466.268l1.921,3.31a.537.537,0,0,0,.466.268h1.98a.537.537,0,0,0,.458-.822l-1.883-3.008a.544.544,0,0,1,.2-.754,3.339,3.339,0,0,0,1.027-.949,3.312,3.312,0,0,0,.554-1.95,2.867,2.867,0,0,0-1.3-2.649,6.506,6.506,0,0,0-3.447-.8h-3.912a.538.538,0,0,0-.539.538v9.856a.537.537,0,0,0,.539.536h1.843a.537.537,0,0,0,.538-.536V92.886a.537.537,0,0,1,.536-.538Zm-22.592-.008,2.311,3.606a.534.534,0,0,0,.45.247h1.882a.536.536,0,0,0,.447-.835l-3.574-5.374a.535.535,0,0,1,.036-.642l2.673-3.2a.537.537,0,0,0-.411-.881h-1.789a.53.53,0,0,0-.418.2l-3.278,4.126h-.05V85.8a.536.536,0,0,0-.538-.538h-1.841a.536.536,0,0,0-.538.538v9.856a.535.535,0,0,0,.538.536h1.841a.535.535,0,0,0,.538-.536V93.526a.545.545,0,0,1,.12-.343l.732-.892a.536.536,0,0,1,.416-.2A.539.539,0,0,1-10322.433,92.34Zm-12.009.933a.539.539,0,0,1,.533.614l-.231,1.6a.536.536,0,0,0,.53.614h.608a.534.534,0,0,0,.53-.463l.265-1.9a.537.537,0,0,1,.533-.465h1.766a.535.535,0,0,0,.535-.538v-.567a.537.537,0,0,0-.535-.538h-1.412a.539.539,0,0,1-.533-.606l.172-1.3a.537.537,0,0,1,.533-.468h1.682a.539.539,0,0,0,.536-.538v-.582a.539.539,0,0,0-.536-.538h-1.331a.536.536,0,0,1-.53-.608l.164-1.248a.537.537,0,0,0-.533-.608h-.564a.537.537,0,0,0-.532.463l-.214,1.539a.537.537,0,0,1-.532.463h-1.446a.539.539,0,0,1-.532-.608l.166-1.248a.537.537,0,0,0-.533-.608h-.569a.537.537,0,0,0-.53.46l-.226,1.544a.538.538,0,0,1-.531.46h-1.687a.539.539,0,0,0-.538.538v.582a.539.539,0,0,0,.538.538h1.31a.536.536,0,0,1,.533.606l-.169,1.3a.536.536,0,0,1-.533.468h-1.583a.537.537,0,0,0-.535.538v.567a.535.535,0,0,0,.535.538h1.228a.538.538,0,0,1,.532.611l-.224,1.609a.538.538,0,0,0,.533.611h.593a.536.536,0,0,0,.533-.463l.263-1.9a.537.537,0,0,1,.533-.465Zm147.145-.073a4.172,4.172,0,0,1-.691-2.524,3.975,3.975,0,0,1,.684-2.472,2.262,2.262,0,0,1,1.893-.887,2.269,2.269,0,0,1,1.9.894,3.945,3.945,0,0,1,.694,2.465,4.114,4.114,0,0,1-.7,2.524,2.231,2.231,0,0,1-1.89.939A2.216,2.216,0,0,1-10187.3,93.2Zm-102.27,0a4.152,4.152,0,0,1-.693-2.524,3.963,3.963,0,0,1,.686-2.472,2.257,2.257,0,0,1,1.891-.887,2.27,2.27,0,0,1,1.9.894,3.933,3.933,0,0,1,.694,2.465,4.121,4.121,0,0,1-.7,2.524,2.231,2.231,0,0,1-1.89.939A2.216,2.216,0,0,1-10289.566,93.2Zm136.171.879V87.362h.391a3.708,3.708,0,0,1,2.47.741,3.239,3.239,0,0,1,.871,2.574,3.363,3.363,0,0,1-.879,2.618,3.568,3.568,0,0,1-2.462.785Zm-182.141-2.449a.539.539,0,0,1-.533-.611l.18-1.3a.536.536,0,0,1,.533-.463h1.43a.539.539,0,0,1,.533.606l-.169,1.3a.539.539,0,0,1-.533.468Zm161.387-1.349a.539.539,0,0,1-.538-.538V87.884a.539.539,0,0,1,.538-.538h.767a3.314,3.314,0,0,1,1.606.307,1.128,1.128,0,0,1,.528,1.058,1.353,1.353,0,0,1-.546,1.165,2.64,2.64,0,0,1-1.589.406Zm-126.247,0a.537.537,0,0,1-.536-.538V87.884a.537.537,0,0,1,.536-.538h.767a3.314,3.314,0,0,1,1.606.307,1.126,1.126,0,0,1,.53,1.058,1.358,1.358,0,0,1-.546,1.165,2.642,2.642,0,0,1-1.591.406Zm-35.285-105.62c-15-6.429-23.536-14.328-23.536-22.533,0-7.215,8.116-13.366,21.279-18.272a101.809,101.809,0,0,1,16.174-42.476,7.283,7.283,0,0,1-2.371-5.392,7.157,7.157,0,0,1,7.076-7.233,6.941,6.941,0,0,1,4.059,1.313,100.481,100.481,0,0,1,40.082-27.316v1.438c-14.611,5.6-27.876,15.544-38.387,27.6a7.3,7.3,0,0,1,1.323,4.2,7.319,7.319,0,0,1-.845,3.424l0,0c10.894,4.57,42.439,19.756,48.237,23.362a1.894,1.894,0,0,1,.879,1.555c.052,2.288-.021,5.015-.216,8.387,7.334-2.608,12.237-4.142,22.408-4.144s15.073,1.536,22.405,4.144c-.2-3.372-.266-6.1-.214-8.387a1.89,1.89,0,0,1,.877-1.555c5.8-3.606,37.344-18.792,48.236-23.362a7.334,7.334,0,0,1-.842-3.421,7.288,7.288,0,0,1,1.4-4.305c-10.5-12.006-23.727-21.909-38.3-27.493v-1.438a100.482,100.482,0,0,1,40.014,27.241,6.919,6.919,0,0,1,3.957-1.238,7.156,7.156,0,0,1,7.077,7.233,7.277,7.277,0,0,1-2.265,5.293,101.7,101.7,0,0,1,14.879,35.051l.016,0a8.55,8.55,0,0,1,8.446,8.631,8.894,8.894,0,0,1-.192,1.822c9.024,4.355,14.364,9.5,14.364,15.344,0,8.205-8.53,16.1-23.533,22.533-11.275,43.838-50.148,76.435-96.248,76.435S-10324.406,28.5-10335.682-15.339Zm96.248,72.686c43.747,0,80.776-30.548,92.518-71.167a181.455,181.455,0,0,1-32.34,8.691c-.346,1.6-.764,3.2-1.273,4.8-3.848,12.107-13.881,19.3-22.593,23.466-8.057,3.858-19.681,7.287-36.395,7.287s-28.338-3.429-36.4-7.287c-8.712-4.17-18.745-11.359-22.593-23.466-.51-1.609-.934-3.224-1.279-4.833a180.859,180.859,0,0,1-32.165-8.657C-10320.21,26.8-10283.181,57.347-10239.434,57.347Zm45.6-81.229a15.505,15.505,0,0,1-4.024,2.2c-.733.3-4.014,1.752-4.175,1.828-.752.369-15.919,7.781-15.919,7.781a.362.362,0,0,0-.2.286,35.292,35.292,0,0,0,.1,7.23c.655,5.249,2.61,8.894,5.358,10.007a10.558,10.558,0,0,0,3.884.731,10.6,10.6,0,0,0,6.45-2.184c2.441-1.848,6.4-6.622,5.595-17.853a6.164,6.164,0,0,0,4.425-2,7.612,7.612,0,0,0,1.6-5.309h-.252s0,4.365-6.073,4.391c-.026-.205-.205-1.705-.271-2.134,6.879-1.856,5.2-8.73,5.2-8.73h-.255A4.531,4.531,0,0,1-10193.833-23.882Zm-92.868,8.018a6.164,6.164,0,0,0,4.425,2c-.8,11.231,3.156,16,5.595,17.853a10.6,10.6,0,0,0,6.453,2.184,10.533,10.533,0,0,0,3.879-.731c2.751-1.113,4.7-4.758,5.36-10.007a35.053,35.053,0,0,0,.1-7.23.358.358,0,0,0-.2-.286s-15.165-7.412-15.916-7.781c-.159-.075-3.442-1.529-4.176-1.828a15.574,15.574,0,0,1-4.024-2.2,4.531,4.531,0,0,1-1.44-3.765h-.252s-1.685,6.874,5.194,8.73c-.064.429-.244,1.929-.271,2.134-6.07-.026-6.07-4.391-6.07-4.391h-.255A7.612,7.612,0,0,0-10286.7-15.864Zm116.93-23.508a1.851,1.851,0,0,1-1.375,1.43c-3.349.788-7.719,1.976-10.782,2.831a50.781,50.781,0,0,1,3.822,19.538c13.706-2.01,24.966-4.7,33.449-7.846a100.332,100.332,0,0,0,1.63-18.017c0-1.679-.057-3.351-.138-5.023a8.572,8.572,0,0,1-7.55-8.579,8.8,8.8,0,0,1,.138-1.516,163.443,163.443,0,0,0-16.241-4.331C-10168.043-50.767-10169.215-41.987-10169.771-39.372Zm-165.336-14.7a110.551,110.551,0,0,0-.73,12.638,100.066,100.066,0,0,0,1.628,18.017c8.446,3.138,19.649,5.816,33.282,7.823a50.779,50.779,0,0,1,3.819-19.514c-3.062-.855-7.433-2.043-10.778-2.831a1.855,1.855,0,0,1-1.378-1.43c-.557-2.613-1.724-11.377-2.948-21.48A140.994,140.994,0,0,0-10335.107-54.074Zm195.064,7.35c.094,1.755.159,3.518.159,5.288a104.673,104.673,0,0,1-1.334,16.647c9.786-4.17,15.017-9.037,15.017-14.153,0-3.7-3.2-7.5-9.219-11.065A8.484,8.484,0,0,1-10140.043-46.724Zm-212.623,7.781c0,5.116,5.23,9.983,15.017,14.153a104.673,104.673,0,0,1-1.334-16.647,106.344,106.344,0,0,1,.608-11.221C-10347.675-48.362-10352.666-43.581-10352.666-38.943Zm204.31-16.1a6.161,6.161,0,0,0,6.086,6.221,6.16,6.16,0,0,0,6.089-6.221,6.162,6.162,0,0,0-6.089-6.224A6.163,6.163,0,0,0-10148.356-55.038Zm-186.335-2.259a178.066,178.066,0,0,1,22.216-5.714c-1.536-12.838-3.1-27.241-3.616-33.844a6.622,6.622,0,0,1-.968.075,6.916,6.916,0,0,1-2.607-.512A97.961,97.961,0,0,0-10334.691-57.3Zm168.133-5.743c6.032,1.183,11.674,2.522,16.809,4.009a8.555,8.555,0,0,1,4.539-4.087,96.985,96.985,0,0,0-14.019-34.227,6.968,6.968,0,0,1-2.748.564,6.62,6.62,0,0,1-.967-.075C-10163.457-90.258-10165.021-75.871-10166.559-63.04Zm-73.486-41.79c0-16.953,0-32.968-22.979-32.968v-1.235c22.979,0,22.979-16.012,22.979-32.966h1.222c0,16.953,0,32.966,22.98,32.966v1.235c-22.98,0-22.98,16.015-22.98,32.968Z" transform="translate(10359.218 171.999)" fill="url(#a)"/></svg>