<svg xmlns="http://www.w3.org/2000/svg" xmlns:xlink="http://www.w3.org/1999/xlink" width="245.118" height="201" viewBox="0 0 245.118 201">
<g transform="translate(-339.5 -1055.5)">
<path d="M10.2-.5a1.329,1.329,0,0,1,.321.045.748.748,0,0,0,.089.018,10.41,10.41,0,0,1,2.371.369c.368.1.633.183.892.275l.009,0A11.1,11.1,0,0,1,16.2,1.364a.771.771,0,0,1,.152.083l.032.023.264.258a11.014,11.014,0,0,1,1.97,1.958l.272.272.024.034a.854.854,0,0,1,.092.172v0A10.916,10.916,0,0,1,20.2,6.51l0,.012c.091.262.177.54.262.85a10.822,10.822,0,0,1,.394,2.47c0,.012.009.044.015.068a1.212,1.212,0,0,1,.042.3,2.848,2.848,0,0,1-.057.512c-.017.095-.033.184-.039.267a11.074,11.074,0,0,1-.2,1.573,7.671,7.671,0,0,1-.243.806c-.024.071-.049.142-.072.213a9.582,9.582,0,0,1-.465,1.194c15.883,6.568,60.734,27.673,69.2,32.824A3.135,3.135,0,0,1,90.546,50.2c.07,3.011-.019,6.662-.271,11.142,10.1-3.5,17.275-5.633,31.781-5.633s21.685,2.134,31.781,5.633c-.25-4.431-.337-8.081-.265-11.14a3.114,3.114,0,0,1,1.5-2.609c8.46-5.15,53.318-26.258,69.2-32.825l-.012-.027a10.921,10.921,0,0,1-.4-1.021l-.022-.062q-.034-.1-.069-.2a8.327,8.327,0,0,1-.278-.934,9.246,9.246,0,0,1-.165-1.209q-.01-.107-.02-.213v-.015c-.006-.1-.024-.2-.043-.315a3.337,3.337,0,0,1-.059-.56,1.083,1.083,0,0,1,.035-.258c0-.013.007-.031.009-.04v0a10.524,10.524,0,0,1,.441-2.678l.039-.132c.057-.194.115-.394.193-.6A10.713,10.713,0,0,1,225.223,4V4a.863.863,0,0,1,.087-.16l.027-.038.217-.21a10.889,10.889,0,0,1,2.252-2.165l.112-.1.121-.064A10.549,10.549,0,0,1,230.378.145l.009,0c.264-.088.488-.156.705-.216A10.467,10.467,0,0,1,233.885-.5h.035a10.711,10.711,0,0,1,10.7,10.7v.006a1.1,1.1,0,0,1-.015.167c0,.009,0,.019,0,.028v0a10.577,10.577,0,0,1-.217,2,3.919,3.919,0,0,1-.146.5c-.031.089-.059.173-.083.256l0,.009c-.026.087-.052.175-.078.262a8.042,8.042,0,0,1-.352,1.028,5.012,5.012,0,0,1-.272.517c-.043.075-.084.145-.123.216l-.1.189a7.842,7.842,0,0,1-.548.933c-.118.165-.244.312-.365.454-.055.064-.11.129-.164.194l-.118.141a9.358,9.358,0,0,1-.7.786l-.016.022a1.129,1.129,0,0,1-.1.122l-.041.041-.236.148a10.746,10.746,0,0,1-2.694,1.754l-.129.084-.041.017a10.632,10.632,0,0,1-4.16.837c-.3,0-.6-.016-.938-.049-.726,8.848-2.832,28.1-5.169,47.24l-.377,3.043c-1.983,15.986-3.539,27.073-4.269,30.418a3.124,3.124,0,0,1-2.361,2.4c-4.631,1.066-10.6,2.649-14.986,3.843a70.529,70.529,0,0,1,5.332,27.259v.017a78.445,78.445,0,0,1-1.662,14.819l0,.007c-.532,2.392-1.138,4.625-1.853,6.827a48.954,48.954,0,0,1-13.8,20.976,75.089,75.089,0,0,1-19.052,12.448,102.841,102.841,0,0,1-21.674,7.223,146.171,146.171,0,0,1-31.039,3.112,146.171,146.171,0,0,1-31.039-3.112,102.824,102.824,0,0,1-21.673-7.223,75.09,75.09,0,0,1-19.053-12.448,48.952,48.952,0,0,1-13.8-20.976l-.014-.043a73.237,73.237,0,0,1-2.086-7.812,64.136,64.136,0,0,1-1.418-13.858,70.579,70.579,0,0,1,5.332-27.216c-4.384-1.194-10.357-2.777-14.985-3.843a3.17,3.17,0,0,1-2.362-2.4C20.227,98.193,18.674,87.124,16.7,71.2l-.371-3.049C13.981,49,11.871,29.728,11.144,20.87c-.336.033-.642.049-.939.049H10.2a2.349,2.349,0,0,1-.347-.031,1.762,1.762,0,0,0-.176-.02H9.67a10.546,10.546,0,0,1-1.53-.154,9.044,9.044,0,0,1-1.126-.321L6.8,20.322c-.055-.018-.116-.034-.18-.051a2.742,2.742,0,0,1-.375-.12l-.033-.014-.027-.017a10.619,10.619,0,0,1-2.836-1.74L3.1,18.21l-.035-.035c-.032-.033-.058-.064-.077-.087l-.016-.019,0,0A10.574,10.574,0,0,1,1.86,16.854c-.035-.044-.072-.087-.109-.13-.07-.082-.143-.167-.212-.265A10.435,10.435,0,0,1,.68,15.022L.674,15.01C.65,14.96.618,14.9.584,14.846a3.043,3.043,0,0,1-.145-.27l0-.009a11.349,11.349,0,0,1-.552-1.642l0-.007c-.012-.047-.03-.1-.049-.155a2.382,2.382,0,0,1-.086-.294h0A10.538,10.538,0,0,1-.5,10.219v-.013A10.705,10.705,0,0,1,10.2-.5ZM13.54,1.149c-.234-.083-.478-.158-.816-.252A9.412,9.412,0,0,0,10.578.563h-.007a1.439,1.439,0,0,1-.278-.045A.683.683,0,0,0,10.2.5,9.717,9.717,0,0,0,.5,10.206v.013a9.536,9.536,0,0,0,.221,2.036v.005a1.527,1.527,0,0,0,.054.176c.024.068.05.146.073.233a10.419,10.419,0,0,0,.5,1.492c.026.056.061.116.1.179s.086.146.127.231a9.489,9.489,0,0,0,.772,1.3l0,.005c.046.064.1.131.163.2.044.051.087.1.129.155a9.633,9.633,0,0,0,1,1.1,1.022,1.022,0,0,1,.113.121l.2.135.021.018A9.615,9.615,0,0,0,6.6,19.207l.038.015.031.019c.061.023.135.042.213.063s.154.041.236.068l.216.072a8.154,8.154,0,0,0,1,.289,9.775,9.775,0,0,0,1.382.136,2.608,2.608,0,0,1,.278.029,1.506,1.506,0,0,0,.2.021H10.2a9.643,9.643,0,0,0,1.327-.1l.524-.072.042.528c.684,8.594,2.83,28.234,5.22,47.76l.371,3.048c1.974,15.892,3.521,26.928,4.246,30.278A2.136,2.136,0,0,0,23.547,103c4.838,1.114,11.138,2.791,15.57,4l.549.15-.22.525a69.622,69.622,0,0,0-5.472,27.356v.009a63.134,63.134,0,0,0,1.4,13.645,72.283,72.283,0,0,0,2.059,7.709l.014.042a47.964,47.964,0,0,0,13.525,20.548,74.1,74.1,0,0,0,18.8,12.279,101.825,101.825,0,0,0,21.462,7.151,145.173,145.173,0,0,0,30.826,3.089,145.173,145.173,0,0,0,30.826-3.089,101.842,101.842,0,0,0,21.463-7.151,74.1,74.1,0,0,0,18.8-12.279,47.967,47.967,0,0,0,13.525-20.549c.705-2.17,1.3-4.373,1.827-6.732a77.567,77.567,0,0,0,1.641-14.643,69.582,69.582,0,0,0-5.472-27.385l-.22-.525L205,107c4.431-1.21,10.73-2.887,15.572-4a2.132,2.132,0,0,0,1.61-1.637c.723-3.317,2.274-14.371,4.253-30.328l.377-3.042c2.382-19.51,4.523-39.132,5.207-47.716l.042-.528.524.072a9.448,9.448,0,0,0,5.057-.639l.122-.08.038-.017a9.748,9.748,0,0,0,2.5-1.633l.03-.027.185-.116a1.064,1.064,0,0,1,.1-.119l.007-.007a8.362,8.362,0,0,0,.637-.712l.117-.14c.055-.067.115-.137.175-.207.113-.132.219-.256.312-.385a6.982,6.982,0,0,0,.477-.816l.1-.2c.047-.086.093-.166.138-.244a4.192,4.192,0,0,0,.222-.418,7.181,7.181,0,0,0,.308-.906c.026-.089.052-.179.079-.268.031-.107.065-.207.1-.3a3.083,3.083,0,0,0,.112-.377V12.2a9.574,9.574,0,0,0,.2-1.811,1.118,1.118,0,0,1,.015-.162c0-.009,0-.019,0-.028a9.71,9.71,0,0,0-9.7-9.7h-.031a9.507,9.507,0,0,0-2.531.39c-.2.055-.406.117-.649.2a9.545,9.545,0,0,0-2.136,1.025l-.042.025-.046.025-.085.07a9.9,9.9,0,0,0-2.08,2l-.021.026-.172.166a.8.8,0,0,1-.078.136,9.7,9.7,0,0,0-1.192,2.28l0,.009c-.063.163-.114.336-.168.519l-.04.134a9.539,9.539,0,0,0-.4,2.417,1.094,1.094,0,0,1-.035.25c0,.013-.007.031-.009.04a2.567,2.567,0,0,0,.046.386c.021.129.044.262.054.407q.01.1.02.21a8.338,8.338,0,0,0,.146,1.083v.005a7.438,7.438,0,0,0,.247.824l.07.205.017.048c.116.325.225.632.364.926a2.639,2.639,0,0,1,.121.314,1.693,1.693,0,0,0,.075.2l.24.481-.5.2c-15.442,6.336-60.993,27.755-69.509,32.939a2.119,2.119,0,0,0-1.023,1.777c-.075,3.2.026,7.064.307,11.806l.044.748-.708-.246c-10.375-3.61-17.478-5.823-32.159-5.823S100.271,58.922,89.9,62.532l-.708.246.044-.748c.284-4.8.387-8.658.313-11.805a2.138,2.138,0,0,0-1.029-1.777C80,43.262,34.448,21.843,19.008,15.508l-.516-.212.266-.49a1.189,1.189,0,0,0,.065-.173c.023-.071.049-.151.085-.234l.011-.023a8.437,8.437,0,0,0,.437-1.114c.025-.076.051-.15.076-.223a6.813,6.813,0,0,0,.213-.7,10.24,10.24,0,0,0,.177-1.428,3.592,3.592,0,0,1,.051-.368,1.987,1.987,0,0,0,.042-.337c0-.007-.008-.039-.014-.062a1.322,1.322,0,0,1-.041-.252V9.886a9.838,9.838,0,0,0-.36-2.25c-.078-.286-.156-.54-.239-.778a9.9,9.9,0,0,0-1.091-2.142.8.8,0,0,1-.077-.142l-.228-.228-.019-.025A10.012,10.012,0,0,0,16.015,2.5l-.024-.018-.222-.216a.693.693,0,0,1-.134-.078A10.127,10.127,0,0,0,13.54,1.149Z" transform="translate(340 1056)" fill="#f24bcf"/>
</g></svg>
