<svg xmlns="http://www.w3.org/2000/svg" width="183.218" height="148" viewBox="0 0 183.218 148"><path d="M183.1,66.594C181.509,40.914,147.875-2.2,89.884.087,53.885,1.525-4.221,24.973.243,80.616,2,102.328,23,132.34,65.494,131.762c-.413,4.084-.2,12.716.694,16.238,2.216-.066,9.21-.265,17.991-.546-.116-2.133.033-4.349-.066-6.3l-.314-6.366c.083-2.282-.562-4.365,1.273-6.432a4.65,4.65,0,0,1,6.333-.281c2.067,1.869,1.521,4.035,1.786,6.284l.066,6.383c-.066,2.183.265,4.316.331,6.432,3.985-.132,8.086-.265,12.121-.413-.149-2.2.033-4.481-.083-6.5l-.314-6.366c.1-2.282-.546-4.365,1.273-6.432a4.672,4.672,0,0,1,6.35-.281c2.05,1.869,1.5,4.035,1.786,6.3l.05,6.366c-.066,2.232.281,4.4.331,6.565,8.863-.347,16.4-.711,19.926-1.025a66.2,66.2,0,0,0,.413-17.462C159.7,124.139,185.2,100.873,183.1,66.594M49.4,105.883c-8.549,6-22.6,1.257-24.605-9.078C22.881,87.032,28.519,72.547,37.383,68.1c11.211-5.606,20.967,1.918,21.745,9.955,1.042,10.533-3.456,23.448-9.723,27.83M161.1,92.208c-1.472,10.451-15.279,16.073-24.109,10.649-6.482-3.969-11.658-16.585-11.178-27.168.38-8.069,9.723-16.205,21.182-11.344,9.111,3.886,15.478,17.991,14.105,27.863" transform="translate(0 0)" fill="#a63ed1"/></svg>